<svg xmlns="http://www.w3.org/2000/svg" viewBox="0 0 1500 636" width="1500" height="636" role="img" aria-label="Veracity">
  <rect width="1500" height="636" fill="#F7F5F1"/>
  <rect x="353.6" y="368.5" width="18" height="18" rx="1.5" fill="#5B6673"/>
  <rect x="406.2" y="336.6" width="18" height="18" rx="1.5" fill="#5B6673"/>
  <rect x="579.2" y="271.2" width="18" height="18" rx="1.5" fill="#5B6673"/>
  <rect x="485.1" y="253.1" width="18" height="18" rx="1.5" fill="#5B6673"/>
  <rect x="629.5" y="305.4" width="18" height="18" rx="1.5" fill="#5B6673"/>
  <rect x="653.6" y="238.1" width="18" height="18" rx="1.5" fill="#5B6673"/>
  <rect x="432.0" y="241.5" width="18" height="18" rx="1.5" fill="#5B6673"/>
  <rect x="413.2" y="397.7" width="18" height="18" rx="1.5" fill="#5B6673"/>
  <rect x="386.6" y="232.9" width="18" height="18" rx="1.5" fill="#5B6673"/>
  <rect x="574.9" y="371.5" width="18" height="18" rx="1.5" fill="#5B6673"/>
  <rect x="459.8" y="219.9" width="18" height="18" rx="1.5" fill="#5B6673"/>
  <rect x="494.2" y="188.2" width="18" height="18" rx="1.5" fill="#5B6673"/>
  <rect x="331.3" y="179.4" width="18" height="18" rx="1.5" fill="#5B6673"/>
  <rect x="235.4" y="375.4" width="18" height="18" rx="1.5" fill="#5B6673"/>
  <rect x="758.9" y="262.9" width="18" height="18" rx="1.5" fill="#5B6673"/>
  <rect x="517.2" y="287.6" width="18" height="18" rx="1.5" fill="#5B6673"/>
  <rect x="264.6" y="242.6" width="18" height="18" rx="1.5" fill="#5B6673"/>
  <rect x="608.9" y="252.0" width="18" height="18" rx="1.5" fill="#5B6673"/>
  <rect x="349.7" y="277.8" width="18" height="18" rx="1.5" fill="#5B6673"/>
  <rect x="543.4" y="227.6" width="18" height="18" rx="1.5" fill="#5B6673"/>
  <rect x="419.4" y="302.2" width="18" height="18" rx="1.5" fill="#5B6673"/>
  <rect x="534.7" y="391.0" width="18" height="18" rx="1.5" fill="#5B6673"/>
  <rect x="308.8" y="313.1" width="18" height="18" rx="1.5" fill="#5B6673"/>
  <rect x="458.6" y="182.1" width="18" height="18" rx="1.5" fill="#5B6673"/>
  <rect x="576.8" y="137.0" width="18" height="18" rx="1.5" fill="#5B6673"/>
  <rect x="240.2" y="209.4" width="18" height="18" rx="1.5" fill="#5B6673"/>
  <rect x="689.1" y="168.8" width="18" height="18" rx="1.5" fill="#5B6673"/>
  <rect x="440.8" y="348.8" width="18" height="18" rx="1.5" fill="#5B6673"/>
  <rect x="646.6" y="204.0" width="18" height="18" rx="1.5" fill="#5B6673"/>
  <rect x="322.0" y="233.0" width="18" height="18" rx="1.5" fill="#5B6673"/>
  <rect x="692.4" y="367.8" width="18" height="18" rx="1.5" fill="#5B6673"/>
  <rect x="366.9" y="175.4" width="18" height="18" rx="1.5" fill="#5B6673"/>
  <rect x="197.9" y="232.6" width="18" height="18" rx="1.5" fill="#5B6673"/>
  <rect x="271.2" y="175.7" width="18" height="18" rx="1.5" fill="#5B6673"/>
  <rect x="341.2" y="133.8" width="18" height="18" rx="1.5" fill="#5B6673"/>
  <rect x="509.3" y="353.9" width="18" height="18" rx="1.5" fill="#5B6673"/>
  <rect x="469.0" y="307.5" width="18" height="18" rx="1.5" fill="#5B6673"/>
  <rect x="424.6" y="202.3" width="18" height="18" rx="1.5" fill="#5B6673"/>
  <rect x="707.9" y="322.3" width="18" height="18" rx="1.5" fill="#5B6673"/>
  <rect x="772.9" y="226.7" width="18" height="18" rx="1.5" fill="#5B6673"/>
  <rect x="250.2" y="335.1" width="18" height="18" rx="1.5" fill="#5B6673"/>
  <rect x="417.8" y="115.5" width="18" height="18" rx="1.5" fill="#5B6673"/>
  <rect x="451.3" y="272.0" width="18" height="18" rx="1.5" fill="#5B6673"/>
  <rect x="454.7" y="125.3" width="18" height="18" rx="1.5" fill="#5B6673"/>
  <rect x="414.2" y="158.9" width="18" height="18" rx="1.5" fill="#5B6673"/>
  <rect x="244.2" y="146.7" width="18" height="18" rx="1.5" fill="#5B6673"/>
  <rect x="585.3" y="310.5" width="18" height="18" rx="1.5" fill="#5B6673"/>
  <rect x="684.8" y="271.7" width="18" height="18" rx="1.5" fill="#5B6673"/>
  <rect x="549.1" y="317.1" width="18" height="18" rx="1.5" fill="#5B6673"/>
  <rect x="573.9" y="210.2" width="18" height="18" rx="1.5" fill="#5B6673"/>
  <rect x="732.1" y="231.0" width="18" height="18" rx="1.5" fill="#5B6673"/>
  <rect x="586.0" y="172.6" width="18" height="18" rx="1.5" fill="#5B6673"/>
  <rect x="544.4" y="263.4" width="18" height="18" rx="1.5" fill="#5B6673"/>
  <rect x="257.0" y="283.9" width="18" height="18" rx="1.5" fill="#5B6673"/>
  <rect x="294.8" y="203.7" width="18" height="18" rx="1.5" fill="#5B6673"/>
  <rect x="313.7" y="388.8" width="18" height="18" rx="1.5" fill="#5B6673"/>
  <rect x="522.3" y="157.3" width="18" height="18" rx="1.5" fill="#5B6673"/>
  <rect x="601.0" y="410.0" width="18" height="18" rx="1.5" fill="#5B6673"/>
  <rect x="672.5" y="324.1" width="18" height="18" rx="1.5" fill="#5B6673"/>
  <rect x="336.7" y="333.6" width="18" height="18" rx="1.5" fill="#5B6673"/>
  <rect x="753.6" y="351.0" width="18" height="18" rx="1.5" fill="#5B6673"/>
  <rect x="614.0" y="144.4" width="18" height="18" rx="1.5" fill="#5B6673"/>
  <line x1="985" y1="70" x2="985" y2="450" stroke="#16181D" stroke-width="1.6"/>
  <line x1="985" y1="70" x2="1001" y2="70" stroke="#8A9099" stroke-width="1.2"/>
  <line x1="985" y1="80" x2="994" y2="80" stroke="#8A9099" stroke-width="0.8"/>
  <line x1="985" y1="90" x2="994" y2="90" stroke="#8A9099" stroke-width="0.8"/>
  <line x1="985" y1="100" x2="994" y2="100" stroke="#8A9099" stroke-width="0.8"/>
  <line x1="985" y1="110" x2="994" y2="110" stroke="#8A9099" stroke-width="0.8"/>
  <line x1="985" y1="120" x2="1001" y2="120" stroke="#8A9099" stroke-width="1.2"/>
  <line x1="985" y1="130" x2="994" y2="130" stroke="#8A9099" stroke-width="0.8"/>
  <line x1="985" y1="140" x2="994" y2="140" stroke="#8A9099" stroke-width="0.8"/>
  <line x1="985" y1="150" x2="994" y2="150" stroke="#8A9099" stroke-width="0.8"/>
  <line x1="985" y1="160" x2="994" y2="160" stroke="#8A9099" stroke-width="0.8"/>
  <line x1="985" y1="170" x2="1001" y2="170" stroke="#8A9099" stroke-width="1.2"/>
  <line x1="985" y1="180" x2="994" y2="180" stroke="#8A9099" stroke-width="0.8"/>
  <line x1="985" y1="190" x2="994" y2="190" stroke="#8A9099" stroke-width="0.8"/>
  <line x1="985" y1="200" x2="994" y2="200" stroke="#8A9099" stroke-width="0.8"/>
  <line x1="985" y1="210" x2="994" y2="210" stroke="#8A9099" stroke-width="0.8"/>
  <line x1="985" y1="220" x2="1001" y2="220" stroke="#8A9099" stroke-width="1.2"/>
  <line x1="985" y1="230" x2="994" y2="230" stroke="#8A9099" stroke-width="0.8"/>
  <line x1="985" y1="240" x2="994" y2="240" stroke="#8A9099" stroke-width="0.8"/>
  <line x1="985" y1="250" x2="994" y2="250" stroke="#8A9099" stroke-width="0.8"/>
  <line x1="985" y1="260" x2="994" y2="260" stroke="#8A9099" stroke-width="0.8"/>
  <line x1="985" y1="270" x2="1001" y2="270" stroke="#8A9099" stroke-width="1.2"/>
  <line x1="985" y1="280" x2="994" y2="280" stroke="#8A9099" stroke-width="0.8"/>
  <line x1="985" y1="290" x2="994" y2="290" stroke="#8A9099" stroke-width="0.8"/>
  <line x1="985" y1="300" x2="994" y2="300" stroke="#8A9099" stroke-width="0.8"/>
  <line x1="985" y1="310" x2="994" y2="310" stroke="#8A9099" stroke-width="0.8"/>
  <line x1="985" y1="320" x2="1001" y2="320" stroke="#8A9099" stroke-width="1.2"/>
  <line x1="985" y1="330" x2="994" y2="330" stroke="#8A9099" stroke-width="0.8"/>
  <line x1="985" y1="340" x2="994" y2="340" stroke="#8A9099" stroke-width="0.8"/>
  <line x1="985" y1="350" x2="994" y2="350" stroke="#8A9099" stroke-width="0.8"/>
  <line x1="985" y1="360" x2="994" y2="360" stroke="#8A9099" stroke-width="0.8"/>
  <line x1="985" y1="370" x2="1001" y2="370" stroke="#8A9099" stroke-width="1.2"/>
  <line x1="985" y1="380" x2="994" y2="380" stroke="#8A9099" stroke-width="0.8"/>
  <line x1="985" y1="390" x2="994" y2="390" stroke="#8A9099" stroke-width="0.8"/>
  <line x1="985" y1="400" x2="994" y2="400" stroke="#8A9099" stroke-width="0.8"/>
  <line x1="985" y1="410" x2="994" y2="410" stroke="#8A9099" stroke-width="0.8"/>
  <line x1="985" y1="420" x2="1001" y2="420" stroke="#8A9099" stroke-width="1.2"/>
  <line x1="985" y1="430" x2="994" y2="430" stroke="#8A9099" stroke-width="0.8"/>
  <line x1="985" y1="440" x2="994" y2="440" stroke="#8A9099" stroke-width="0.8"/>
  <line x1="985" y1="450" x2="994" y2="450" stroke="#8A9099" stroke-width="0.8"/>
  <rect x="1196" y="150" width="20" height="20" rx="1.5" fill="#5B6673"/>
  <rect x="1196" y="218" width="20" height="20" rx="1.5" fill="#AF584F"/>
  <rect x="1196" y="286" width="20" height="20" rx="1.5" fill="#5B6673"/>
  <rect x="1196" y="354" width="20" height="20" rx="1.5" fill="#5B6673"/>
  <text x="62" y="545" font-family="Helvetica Neue,Helvetica,Arial,sans-serif" font-size="118" font-weight="500" letter-spacing="-2" fill="#16181D">Veracity</text>
</svg>
